<svg width="31" height="27" viewBox="0 0 31 27" fill="none" xmlns="http://www.w3.org/2000/svg">
<path d="M14.3393 5.08257C14.3393 5.08257 18.4398 12.7295 14.6287 12.7295C10.8176 12.7295 15.8638 4.88495 14.3393 5.08257C14.3393 3.25453 6.62527 -0.334726 2.81413 5.93615C-0.997017 12.207 2.02694 15.4202 4.33858 17.8925C6.62527 20.3381 6.33592 19.7502 7.86038 20.8372C9.38484 21.9241 13.1042 24.9576 13.1042 24.9576M14.3393 5.08257C14.3393 5.08257 18.4399 0.501447 23.7754 1.04492C29.111 1.58839 31.0166 7.29483 29.4922 10.0122C27.9678 12.7295 14.6287 26.0001 14.6287 26.0001" stroke="#FF6C6C" stroke-width="2"/>
</svg>
